<svg width="26" height="26" viewBox="0 0 26 26" fill="none" xmlns="http://www.w3.org/2000/svg">
  <circle cx="13" cy="13" r="13" fill="#CDF138"/>
  <g clip-path="url(#clip0_1471_3402)">
  <path fill-rule="evenodd" clip-rule="evenodd" d="M10.0784 8.20124L7.30469 10.9749C7.09459 11.1851 6.97656 11.4701 6.97656 11.7673C6.97656 12.0644 7.09459 12.3494 7.30469 12.5596L10.0784 15.3333C10.1825 15.4375 10.3061 15.5202 10.4421 15.5766C10.5782 15.633 10.724 15.662 10.8713 15.662C11.0186 15.662 11.1644 15.633 11.3004 15.5766C11.4365 15.5202 11.5601 15.4375 11.6642 15.3333L14.4368 12.5596C14.6469 12.3494 14.7649 12.0644 14.7649 11.7673C14.7649 11.4701 14.6469 11.1851 14.4368 10.9749L11.6642 8.20124C11.5601 8.09704 11.4365 8.01438 11.3004 7.95799C11.1644 7.90159 11.0186 7.87256 10.8713 7.87256C10.724 7.87256 10.5782 7.90159 10.4421 7.95799C10.3061 8.01438 10.1825 8.09704 10.0784 8.20124ZM10.8707 13.7487L8.89046 11.7673L10.8707 9.7859L12.8521 11.7673L10.8707 13.7487Z" fill="black"/>
  <path fill-rule="evenodd" clip-rule="evenodd" d="M3.58594 11.7673C3.58506 10.119 4.14322 8.51908 5.16924 7.22904C6.19525 5.93899 7.62845 5.03506 9.23466 4.66492C10.8409 4.29479 12.5251 4.48034 14.0122 5.19126C15.4994 5.90218 16.7014 7.09644 17.422 8.5789C18.4651 9.0874 19.3716 9.83774 20.066 10.7674C20.7605 11.6971 21.2228 12.7793 21.4144 13.9238C21.606 15.0683 21.5215 16.242 21.1677 17.3472C20.814 18.4524 20.2014 19.4571 19.3808 20.2777C18.5603 21.0982 17.5556 21.7109 16.4504 22.0646C15.3452 22.4183 14.1714 22.5029 13.0269 22.3112C11.8825 22.1196 10.8003 21.6573 9.8706 20.9629C8.9409 20.2684 8.19056 19.3619 7.68206 18.3188C6.4536 17.7208 5.41809 16.7894 4.69379 15.6309C3.96948 14.4724 3.58558 13.1335 3.58594 11.7673ZM10.8704 6.16382C9.38429 6.16382 7.95904 6.75418 6.90819 7.80503C5.85733 8.85588 5.26697 10.2811 5.26697 11.7673C5.26697 13.2534 5.85733 14.6786 6.90819 15.7295C7.95904 16.7804 9.38429 17.3707 10.8704 17.3707C12.3565 17.3707 13.7818 16.7804 14.8327 15.7295C15.8835 14.6786 16.4739 13.2534 16.4739 11.7673C16.4739 10.2811 15.8835 8.85588 14.8327 7.80503C13.7818 6.75418 12.3565 6.16382 10.8704 6.16382ZM18.1549 11.7673C18.1549 11.542 18.1437 11.319 18.1246 11.0982C18.6598 11.6151 19.0867 12.2334 19.3804 12.9171C19.6741 13.6007 19.8286 14.336 19.8351 15.08C19.8416 15.824 19.6998 16.5619 19.418 17.2505C19.1363 17.9392 18.7202 18.5648 18.1941 19.0909C17.668 19.6171 17.0423 20.0331 16.3537 20.3149C15.6651 20.5966 14.9272 20.7384 14.1832 20.7319C13.4392 20.7255 12.7039 20.5709 12.0202 20.2772C11.3366 19.9836 10.7183 19.5567 10.2014 19.0215C11.2102 19.1145 12.2273 18.9961 13.1877 18.6739C14.1481 18.3516 15.0308 17.8326 15.7793 17.1499C16.5278 16.4672 17.1256 15.6359 17.5347 14.7091C17.9437 13.7823 18.155 12.7803 18.1549 11.7673Z" fill="black"/>
  </g>
  <defs>
  <clipPath id="clip0_1471_3402">
  <rect width="17.931" height="17.931" fill="white" transform="translate(3.58594 4.48279)"/>
  </clipPath>
  </defs>
</svg>
  