<svg width="145" height="41" viewBox="0 0 145 41" fill="none" xmlns="http://www.w3.org/2000/svg">
<path d="M134.418 15.7688H144.746V18.439H134.418V15.7688ZM137.939 11.8369H141.225V30.3815H137.939V11.8369Z" fill="white"/>
<path d="M119.583 25.5694H122.605C122.762 26.3128 123.163 26.9192 123.809 27.3887C124.454 27.8386 125.325 28.0635 126.42 28.0635C127.124 28.0635 127.672 27.9853 128.063 27.8288C128.474 27.6723 128.758 27.4571 128.914 27.1833C129.09 26.9094 129.178 26.5964 129.178 26.2443C129.178 25.8139 129.051 25.4814 128.797 25.2466C128.562 25.0119 128.21 24.8163 127.74 24.6598C127.271 24.5033 126.684 24.3664 125.98 24.249C125.256 24.0729 124.542 23.8773 123.838 23.6621C123.134 23.4469 122.498 23.1829 121.931 22.8699C121.363 22.5373 120.913 22.1265 120.581 21.6375C120.268 21.1289 120.111 20.5127 120.111 19.7889C120.111 19.1238 120.258 18.5272 120.551 17.999C120.864 17.4513 121.295 16.9915 121.843 16.6199C122.39 16.2482 123.036 15.9646 123.779 15.7689C124.523 15.5538 125.334 15.4462 126.215 15.4462C127.486 15.4462 128.542 15.6516 129.384 16.0624C130.244 16.4732 130.89 17.0502 131.32 17.7936C131.77 18.5369 131.995 19.3879 131.995 20.3464H129.12C128.963 19.5639 128.66 18.9966 128.21 18.6445C127.76 18.2924 127.085 18.1164 126.185 18.1164C125.285 18.1164 124.601 18.2728 124.131 18.5858C123.662 18.8988 123.427 19.3292 123.427 19.8769C123.427 20.2877 123.574 20.6203 123.867 20.8746C124.18 21.1093 124.62 21.3147 125.188 21.4908C125.755 21.6668 126.42 21.8429 127.183 22.0189C127.887 22.2146 128.552 22.42 129.178 22.6351C129.804 22.8308 130.362 23.0851 130.851 23.398C131.359 23.6915 131.76 24.0827 132.054 24.5718C132.347 25.0608 132.494 25.6672 132.494 26.391C132.494 27.2908 132.249 28.0635 131.76 28.7091C131.291 29.3546 130.606 29.8534 129.706 30.2056C128.807 30.5381 127.721 30.7044 126.449 30.7044C125.334 30.7044 124.366 30.5772 123.544 30.3229C122.742 30.0686 122.068 29.7361 121.52 29.3253C120.992 28.9145 120.581 28.4743 120.287 28.0049C119.994 27.5354 119.789 27.0854 119.671 26.6551C119.573 26.2247 119.544 25.8628 119.583 25.5694Z" fill="white"/>
<path d="M116.65 9.57764V12.7173H112.748V9.57764H116.65ZM113.041 15.769H116.328V30.3816H113.041V15.769Z" fill="white"/>
<path d="M101.832 15.7689H105.089V30.3816H101.832V15.7689ZM110.371 18.5565C109.315 18.5565 108.405 18.7815 107.642 19.2314C106.899 19.6813 106.302 20.229 105.852 20.8746C105.402 21.5201 105.089 22.1461 104.913 22.7525L104.884 21.1093C104.904 20.8941 104.972 20.5714 105.089 20.141C105.207 19.6911 105.383 19.202 105.618 18.6739C105.872 18.1457 106.204 17.6371 106.615 17.148C107.046 16.6394 107.564 16.2286 108.17 15.9156C108.796 15.6027 109.53 15.4462 110.371 15.4462V18.5565Z" fill="white"/>
<path d="M98.2349 30.3815H94.9778V15.7688H98.2349V30.3815ZM95.1539 23.4272L95.1832 24.3662C95.1441 24.6205 95.0561 25.002 94.9191 25.5106C94.8018 26.0192 94.5964 26.5767 94.3029 27.1831C94.0291 27.77 93.6574 28.3373 93.1879 28.885C92.738 29.4132 92.1707 29.8533 91.486 30.2054C90.8014 30.538 89.97 30.7042 88.9919 30.7042C88.2877 30.7042 87.5737 30.6064 86.8499 30.4108C86.1457 30.2348 85.5001 29.9316 84.9133 29.5012C84.346 29.0708 83.8863 28.484 83.5341 27.7406C83.182 26.9973 83.006 26.0583 83.006 24.9237V15.7688H86.263V24.3075C86.263 25.2269 86.4097 25.9507 86.7032 26.4789C87.0162 26.9875 87.4465 27.3494 87.9942 27.5646C88.542 27.7798 89.1777 27.8873 89.9015 27.8873C90.9383 27.8873 91.8186 27.6526 92.5424 27.1831C93.2662 26.7136 93.8432 26.1366 94.2736 25.4519C94.7235 24.7477 95.0169 24.0728 95.1539 23.4272Z" fill="white"/>
<path d="M76.8734 25.5694H80.0131C79.8566 26.5671 79.4654 27.4571 78.8394 28.2396C78.233 29.0025 77.4016 29.6089 76.3452 30.0588C75.2889 30.4892 74.0272 30.7044 72.56 30.7044C70.8973 30.7044 69.4106 30.4012 68.0999 29.7948C66.7893 29.1688 65.7623 28.2885 65.019 27.1539C64.2756 26.0193 63.9039 24.6696 63.9039 23.1046C63.9039 21.5592 64.2658 20.2095 64.9896 19.0553C65.7134 17.9012 66.711 17.0111 67.9826 16.3851C69.2736 15.7592 70.7603 15.4462 72.4427 15.4462C74.1837 15.4462 75.6312 15.7592 76.7854 16.3851C77.9591 16.9915 78.8296 17.911 79.3969 19.1433C79.9642 20.3562 80.1989 21.8918 80.1011 23.7502H67.2197C67.3175 24.5718 67.5816 25.3151 68.0119 25.9802C68.4618 26.6257 69.0682 27.1344 69.8312 27.506C70.5941 27.8581 71.4841 28.0342 72.5013 28.0342C73.6359 28.0342 74.5847 27.8092 75.3476 27.3593C76.1301 26.9094 76.6387 26.3128 76.8734 25.5694ZM72.3546 18.087C71.0244 18.087 69.929 18.4196 69.0682 19.0847C68.2075 19.7302 67.65 20.5616 67.3957 21.5788H76.8147C76.7365 20.4833 76.2963 19.6324 75.4943 19.026C74.6923 18.4 73.6457 18.087 72.3546 18.087Z" fill="white"/>
<path d="M43.7432 19.4366H57.7103V22.2828H43.7432V19.4366ZM57.2408 11.3673H60.5565V30.3814H57.2408V11.3673ZM40.7795 11.3673H44.1246V30.3814H40.7795V11.3673Z" fill="white"/>
<g clip-path="url(#clip0_1_540)">
<path d="M17.4973 0V19.8932V20.2102H13.123V7.58075L8.74861 10.1026L6.40575 11.4605L4.37424 12.6295V27.791L6.40575 28.96L8.74861 30.3179V20.2102H13.123V37.8936L12.8116 37.7149L8.75372 35.3666H8.74861L5.23687 33.3349L4.37424 32.8397L-0.00012207 30.3179V10.1026L4.37424 7.58075L5.23687 7.08558L8.74861 5.05384H8.75372L12.8116 2.70559L13.123 2.52692H13.1281L17.4973 0Z" fill="url(#paint0_linear_1_540)"/>
<path d="M35 10.1025V30.3178L30.6256 32.8397L29.763 33.3348L26.2513 35.3666H26.2462L22.1883 37.7148L21.8769 37.8935H21.8718L17.4974 40.4204V20.2102H21.8769V32.8397L26.2513 30.3178L28.5941 28.9599L30.6256 27.7909V12.6294L28.5941 11.4604L26.2513 10.1025V20.2102H21.8769V2.52686L22.1883 2.70553L26.2462 5.05377H26.2513L29.763 7.08552L30.6256 7.58069L35 10.1025Z" fill="url(#paint1_linear_1_540)"/>
</g>
<defs>
<linearGradient id="paint0_linear_1_540" x1="8.74861" y1="0" x2="8.74861" y2="37.8936" gradientUnits="userSpaceOnUse">
<stop stop-color="white"/>
<stop offset="0.0587305" stop-color="white" stop-opacity="0.88"/>
<stop offset="1" stop-color="white" stop-opacity="0.5"/>
</linearGradient>
<linearGradient id="paint1_linear_1_540" x1="26.2487" y1="2.52686" x2="26.2487" y2="40.4204" gradientUnits="userSpaceOnUse">
<stop stop-color="white"/>
<stop offset="0.0587305" stop-color="white" stop-opacity="0.88"/>
<stop offset="1" stop-color="white" stop-opacity="0.5"/>
</linearGradient>
<clipPath id="clip0_1_540">
<rect width="35.0256" height="40.4664" fill="white"/>
</clipPath>
</defs>
</svg>
