<?xml version="1.0" encoding="UTF-8"?><svg id="Layer_1" xmlns="http://www.w3.org/2000/svg" viewBox="0 0 500 70"><defs><style>.cls-1{fill:#000;stroke-width:0px;}</style></defs><path class="cls-1" d="M409.64,18.53h73.77v-8.45h-73.77c-2.69,0-5.38.65-7.78,1.87-2.4,1.22-4.51,3.02-6.09,5.19l-5.37,7.37c-1.12,1.54-1.98,3.23-2.56,5.04-.57,1.76-.85,3.6-.85,5.45s.29,3.69.85,5.45c.58,1.81,1.44,3.5,2.56,5.04l5.37,7.37c1.59,2.18,3.69,3.97,6.09,5.19s5.09,1.87,7.78,1.87h73.77v-8.67h-73.77c-2.15,0-4.2-1.04-5.47-2.78l-7.52-9.32h85.75v-8.32h-85.75l7.52-9.52c1.27-1.74,3.31-2.78,5.47-2.78Z"/><path class="cls-1" d="M377.43,10.08l-14.72,19.99c-2.4,3.14-4.4,5.77-6.11,8.14-8.21,11.31-8.29,11.31-14.5,11.31-5.83,0-5.94,0-14.11-10.45-1.92-2.46-4.31-5.51-7.23-9.11l-15.44-19.88h-13.18l20.44,26.31.07.09c2.88,3.54,5.24,6.56,7.15,9,4.38,5.6,7.02,8.98,10.07,11.2,3.72,2.71,7.45,3.25,12.25,3.25,2.78,0,4.83-.2,6.65-.65,2.19-.54,4.14-1.48,5.95-2.86,3.1-2.38,5.79-6,10.25-12.01,1.72-2.32,3.68-4.95,6.05-8.05l.03-.04,19.33-26.24h-12.93Z"/><path class="cls-1" d="M205.66,50.95c-.93-1.17-1.8-2.26-2.62-3.29-5.03-6.33-8.05-10.12-10.66-12.66,1.7-1.65,3.57-3.84,6.06-6.91,1.33-1.64,2.84-3.54,4.6-5.75.82-1.03,1.69-2.13,2.62-3.29l.03-.04,6.86-8.93h-13.12l-1.93,2.52c-.92,1.16-1.79,2.24-2.6,3.27-5,6.29-8.17,10.27-10.36,12.23-.18.16-.35.3-.51.43-1.27,1.02-1.97,1.27-5.45,1.27h-48.76V10.08h-10.41v49.84h10.41v-19.72h48.76c3.48,0,4.18.26,5.45,1.27,2.21,1.76,5.47,5.87,10.87,12.66.81,1.02,1.68,2.11,2.6,3.27l1.93,2.52h13.12l-6.83-8.89-.06-.08Z"/><path class="cls-1" d="M94.3,33.52c-2.88-3.54-5.24-6.56-7.15-9-4.38-5.6-7.02-8.98-10.07-11.2-3.72-2.71-7.45-3.25-12.25-3.25-2.78,0-4.83.2-6.65.65-2.19.54-4.14,1.48-5.95,2.87-3.1,2.38-5.79,6-10.25,12.01-1.72,2.32-3.68,4.95-6.05,8.05l-.03.04-19.33,26.24h12.93l14.72-19.99c2.4-3.14,4.37-5.79,6.11-8.14,3.78-5.09,6.27-8.46,8.22-9.94,1.24-.95,2.44-1.37,6.28-1.37,5.83,0,5.94,0,14.11,10.45,1.92,2.46,4.31,5.51,7.23,9.11l15.44,19.88h13.18l-20.44-26.31-.07-.09Z"/><path class="cls-1" d="M295.44,33.52c-2.87-3.53-5.24-6.56-7.14-8.99-4.38-5.6-7.02-8.98-10.06-11.19-3.72-2.71-7.44-3.25-12.24-3.25s-8.52.54-12.24,3.25c-3.05,2.22-5.69,5.6-10.06,11.19-1.9,2.43-4.27,5.46-7.14,8.99l-.07.09-20.43,26.3h13.18l15.44-19.87c2.92-3.59,5.31-6.65,7.23-9.11,8.17-10.45,8.28-10.45,14.11-10.45s5.94,0,14.11,10.45c1.92,2.46,4.31,5.51,7.23,9.11l15.44,19.87h13.18l-20.43-26.3-.07-.09Z"/><polygon class="cls-1" points="276.91 47.89 275.76 47.95 276.09 46.85 279.52 35.34 270.6 42.52 269.62 43.31 269.32 42.09 266.04 31.05 262.99 42.52 262.7 43.8 261.69 42.97 252.5 35.39 255.91 46.82 256.24 47.92 255.1 47.85 250.95 47.62 244.71 47.5 266 59.74 287.14 47.3 281.08 47.65 276.91 47.89"/></svg>