<?xml version="1.0" encoding="utf-8"?>
<!-- Generator: Adobe Illustrator 27.1.1, SVG Export Plug-In . SVG Version: 6.00 Build 0)  -->
<svg version="1.1" id="Layer_1" xmlns="http://www.w3.org/2000/svg" xmlns:xlink="http://www.w3.org/1999/xlink" x="0px" y="0px"
	 viewBox="0 0 2721 2832" style="enable-background:new 0 0 2721 2832;" xml:space="preserve">
<style type="text/css">
	.st0{fill:#010217;}
</style>
<path class="st0" d="M2441.4,1442.7L643.5,2481c-9,5.2-20,5.2-28.9,0l-125.1-72.4c-5.1-2.9-8.1-8.2-8.1-14.1s3-11.2,8.1-14.1
	l891.1-514.7c3.4-1.8,7.5-2.3,11-0.6c3.6,1.8,6.1,4.8,6.9,8.7c5.4,26.5,10.2,53.4,14.2,80.4c0.3,2.2,1.8,4.2,3.9,5.4
	c2,1,4.5,0.9,6.5-0.3l1002.7-579c7.8-4.5,17.4-4.5,25.2,0c7.7,4.5,12.6,12.9,12.6,21.9v2.1C2463.5,1420.1,2455,1434.8,2441.4,1442.7
	z M2451.1,1727.4c-7.8-4.5-17.4-4.5-25.2,0l-991.3,572.6c-2.2,1.3-5.1,1.3-7.3-0.1c-2.3-1.5-3.4-3.9-3.2-6.5c2.4-30.6,4-61.7,4.6-93
	h-0.3c0-3.2-1.6-6-4.2-7.6c-2.7-1.6-6-1.6-8.7,0l-625.9,361.4c-5.1,3-8.1,8.2-8.1,14.1c0,5.9,3,11.1,8.1,14.1l125.1,72.4
	c8.8,5.2,19.9,5.2,28.9,0l1497.8-865c13.6-7.8,22.1-22.6,22.1-38.3v-2.1c0-9-4.8-17.4-12.6-21.9L2451.1,1727.4z M2450.2,2075.6
	c-8.2-4.8-18.3-4.8-26.5,0l-1077.2,622.1c-2.7,1.5-5.7,1.2-8.1-0.6c-2.4-1.8-3-5.1-2-7.8c14.3-38.4,26.9-77.8,38.1-117.8
	c0.4-1.6-0.1-3.1-1.5-4.2c-1.3-0.9-3-1.1-4.4-0.3l-278.9,161.2c-5.1,3-8.1,8.2-8.1,14c0,5.8,3,11.2,8.1,14.1l125.1,72.3
	c8.8,5.2,19.9,5.2,28.9,0L2441.1,2137c13.6-7.8,22.1-22.6,22.1-38.3c0-9.4-5.1-18.2-13.3-22.9h0.1L2450.2,2075.6z M11.8,765.2
	L1250.7,49.7c8.1-4.6,12.9-13.3,12.6-22.6c-0.3-9.3-5.5-17.6-13.8-21.9c-13.4-6.7-29.3-6.4-42.2,1.1L11.9,696.7
	c-7.3,4.2-12,12.1-12,20.6v41c0,2.8,1.5,5.4,4,6.9C6.4,766.7,9.3,766.7,11.8,765.2L11.8,765.2z M452.3,780.1
	c-39-14.2-78.9-26.6-119.4-37.5c-3.9-1.1-8.1-0.6-11.5,1.5L12.1,922.5c-7.3,4.2-12,12.1-12,20.6v162c0,2.8,1.5,5.4,4,6.9
	s5.4,1.5,7.8,0L1553.4,222c7.8-4.5,12.6-13,12.6-21.9c0-8.9-4.8-17.4-12.6-21.9l-1.8-1.1c-13.6-7.8-30.5-7.8-44.3,0l-1041.9,602
	c-3.9,2.2-8.7,2.7-12.7,1.1H452.3L452.3,780.1z M769,940.4c-27.1-18.1-54.8-35.1-83-51.5c-4.8-2.7-10.5-2.7-15.3,0L11.9,1269.4
	c-7.3,4.2-12,12.1-12,20.6v162c0,2.8,1.5,5.4,4,6.9c2.5,1.5,5.4,1.5,7.8,0L1849.9,397.3c7.8-4.5,12.6-12.9,12.6-21.9
	c0-9-4.8-17.4-12.6-21.9l-1.8-1.1c-13.6-7.8-30.5-7.8-44.3,0L785.1,940.8c-5.1,2.9-11.2,2.7-16-0.6L769,940.4z M2246.4,398.4
	c-183.7,0-368.2,109.6-443.2,300.9l-772.7,446.2c-6.1,3.4-13.6,2.4-18.5-2.7c-19.3-19.9-39-39.3-59.4-58.2c-4.9-4.5-12.2-5.3-17.9-2
	L11.9,1615.8c-7.3,4.2-12,12.1-12,20.6v162c0,2.8,1.5,5.4,4,6.9s5.4,1.5,7.8,0L2175.8,555.6c7.6-4.4,16.9-4.4,24.2,0l108.8,62.8
	c3.1,1.8,5.2,5.2,5.2,8.8c0,3.7-2,7-5.2,8.8l-528.3,305.1c-3,1.6-4.4,4.9-4,8.2c5.1,31.3,13.2,61.6,23.9,90.5c1.3,3.7,0,7.8-3.6,9.9
	l-586.1,338.5c-3,1.7-6.7,0.8-8.7-2.1c-14.6-23.2-29.9-46.2-45.8-68.5c-4.5-6.4-13.2-8.2-20-4.4L11.7,1962.7
	c-7.3,4.2-12,12.1-12,20.6V2107c0,11.8,6.4,22.7,16.6,28.7c7.3,4.2,16.4,4.2,23.8,0L2447.8,745.2c3.1-1.8,7-1.8,10.2,0
	c3.1,1.8,5.2,5.2,5.2,8.8v124.6c0.1,8.8-4.5,17-12.2,21.4l-533.9,309c-1.3,0.6-2.1,2-2.2,3.6c-0.1,1.5,0.3,2.9,1.5,4
	c21.7,21,45.6,39.9,71,56.5c2.4,1.5,3.7,4.2,3.6,6.9c0,2.8-1.6,5.3-4,6.7l-642,370.9c-1.8,1-4,1.3-6,0.6c-2-0.8-3.4-2.2-4.2-4.2
	c-9.3-24.7-19.1-49.1-29.7-73.1c-1.6-3.7-4.8-6.5-8.7-7.8c-3.9-1.3-8.1-0.8-11.5,1.2L190,2206.4c-5.3,3-8.5,8.7-8.5,14.8
	c0,6.1,3.2,11.8,8.5,14.8l123.9,71.5c8.8,5.2,19.9,5.2,28.9,0l2105.6-1215.8c3.1-1.8,7-1.8,10.2,0c3.2,1.8,5.2,5.2,5.2,8.9V1223
	c0.1,8.8-4.5,17-12.2,21.4l-168.8,97.5c-0.6,0.4-1.1,1.3-0.8,2.1c0.3,0.8,1.1,1.3,1.8,1.3c64.6-4.8,125.5-22.4,180.3-50.4
	c152.5-79.1,256.7-238.4,256.7-422h0.1C2721,610.7,2508.5,398.3,2246.4,398.4L2246.4,398.4L2246.4,398.4z"/>
</svg>
